<svg viewBox="0 0 20.6665 25.833" xmlns="http://www.w3.org/2000/svg" xmlns:xlink="http://www.w3.org/1999/xlink" width="20.666504" height="25.833008" fill="none" customFrame="#000000">
	<path id="Vector" d="M0 2.58333C0 1.89819 0.272172 1.24111 0.756641 0.756641C1.24111 0.272172 1.89819 5.73615e-16 2.58333 0L12.9167 0C13.2592 7.31567e-05 13.5877 0.136207 13.8299 0.378458L20.2882 6.83679C20.5305 7.07897 20.6666 7.40746 20.6667 7.75L20.6667 23.25C20.6667 23.9351 20.3945 24.5922 19.91 25.0767C19.4256 25.5612 18.7685 25.8333 18.0833 25.8333L2.58333 25.8333C1.89819 25.8333 1.24111 25.5612 0.756641 25.0767C0.272172 24.5922 1.72085e-15 23.9351 0 23.25L0 2.58333ZM17.5486 7.75L12.9167 3.11808L12.9167 7.75L17.5486 7.75ZM10.3333 2.58333L2.58333 2.58333L2.58333 23.25L18.0833 23.25L18.0833 10.3333L11.625 10.3333C11.2824 10.3333 10.9539 10.1972 10.7117 9.95501C10.4694 9.71278 10.3333 9.38424 10.3333 9.04167L10.3333 2.58333ZM15.1215 13.2951C15.3637 13.5373 15.4997 13.8658 15.4997 14.2083C15.4997 14.5508 15.3637 14.8793 15.1215 15.1215L9.95487 20.2882C9.71265 20.5304 9.38417 20.6664 9.04167 20.6664C8.69916 20.6664 8.37068 20.5304 8.12846 20.2882L5.54513 17.7049C5.42176 17.5857 5.32336 17.4432 5.25566 17.2856C5.18796 17.128 5.15233 16.9585 5.15084 16.787C5.14935 16.6155 5.18203 16.4454 5.24698 16.2867C5.31193 16.1279 5.40784 15.9837 5.52912 15.8624C5.65039 15.7412 5.79461 15.6453 5.95335 15.5803C6.11209 15.5154 6.28218 15.4827 6.45368 15.4842C6.62519 15.4857 6.79468 15.5213 6.95227 15.589C7.10986 15.6567 7.25239 15.7551 7.37154 15.8785L9.04167 17.5486L13.2951 13.2951C13.5373 13.053 13.8658 12.9169 14.2083 12.9169C14.5508 12.9169 14.8793 13.053 15.1215 13.2951Z" fill="rgb(255,255,255)" fill-rule="nonzero" />
</svg>
