<svg viewBox="0 0 24 25" xmlns="http://www.w3.org/2000/svg" xmlns:xlink="http://www.w3.org/1999/xlink" width="24.000000" height="25.000000" fill="none" customFrame="#000000">
	<path id="Vector" d="M10 18.5C10 20.598 10.862 22.495 12.25 23.857C11.532 23.9517 10.782 23.9993 10 24C4.21 24 0 21.433 0 17.715L0 17C4.44089e-16 16.2043 0.316071 15.4413 0.87868 14.8787C1.44129 14.3161 2.20435 14 3 14L11.5 14C10.5244 15.2972 9.99783 16.8769 10 18.5ZM10 6.66134e-16C10.7879 -1.17411e-08 11.5681 0.155195 12.2961 0.456723C13.0241 0.758251 13.6855 1.20021 14.2426 1.75736C14.7998 2.31451 15.2418 2.97595 15.5433 3.7039C15.8448 4.43185 16 5.21207 16 6C16 6.78793 15.8448 7.56815 15.5433 8.2961C15.2418 9.02405 14.7998 9.68549 14.2426 10.2426C13.6855 10.7998 13.0241 11.2417 12.2961 11.5433C11.5681 11.8448 10.7879 12 10 12C8.4087 12 6.88258 11.3679 5.75736 10.2426C4.63214 9.11742 4 7.5913 4 6C4 4.4087 4.63214 2.88258 5.75736 1.75736C6.88258 0.632141 8.4087 2.37122e-08 10 6.66134e-16ZM24 18.5C24 20.2239 23.3152 21.8772 22.0962 23.0962C20.8772 24.3152 19.2239 25 17.5 25C15.7761 25 14.1228 24.3152 12.9038 23.0962C11.6848 21.8772 11 20.2239 11 18.5C11 16.7761 11.6848 15.1228 12.9038 13.9038C14.1228 12.6848 15.7761 12 17.5 12C19.2239 12 20.8772 12.6848 22.0962 13.9038C23.3152 15.1228 24 16.7761 24 18.5ZM18.214 14.54C18.17 14.3845 18.0765 14.2476 17.9476 14.1501C17.8188 14.0527 17.6616 13.9999 17.5 13.9999C17.3384 13.9999 17.1812 14.0527 17.0524 14.1501C16.9235 14.2476 16.83 14.3845 16.786 14.54L16.07 16.838L13.752 16.838C13.025 16.838 12.722 17.808 13.311 18.254L15.186 19.674L14.47 21.972C14.245 22.693 15.037 23.292 15.625 22.847L17.5 21.427L19.375 22.847C19.963 23.293 20.755 22.693 20.53 21.972L19.814 19.674L21.689 18.254C22.277 17.809 21.975 16.838 21.248 16.838L18.93 16.838L18.214 14.54Z" fill="rgb(255,255,255)" fill-opacity="0.649999976" fill-rule="nonzero" />
</svg>
