<svg viewBox="0 0 23.7998 23.7998" xmlns="http://www.w3.org/2000/svg" xmlns:xlink="http://www.w3.org/1999/xlink" width="23.799805" height="23.799805" fill="none" customFrame="#000000">
	<path id="Vector" d="M9.8 0C8.31479 1.24345e-15 6.89041 0.589998 5.8402 1.6402C4.79 2.69041 4.2 4.11479 4.2 5.6C4.2 7.08521 4.79 8.50959 5.8402 9.5598C6.89041 10.61 8.31479 11.2 9.8 11.2C11.2852 11.2 12.7096 10.61 13.7598 9.5598C14.81 8.50959 15.4 7.08521 15.4 5.6C15.4 4.11479 14.81 2.69041 13.7598 1.6402C12.7096 0.589998 11.2852 6.21725e-16 9.8 0ZM2.8126 12.6C2.44384 12.5983 2.07838 12.6695 1.73722 12.8095C1.39605 12.9495 1.08589 13.1555 0.824551 13.4156C0.563211 13.6758 0.355837 13.985 0.214336 14.3256C0.0728359 14.6661 -3.73361e-06 15.0312 1.43537e-10 15.4C1.43537e-10 17.7674 1.1662 19.5524 2.989 20.7158C4.7838 21.8596 7.203 22.4 9.8 22.4C10.3759 22.4 10.9405 22.3734 11.494 22.3202C10.3952 20.9542 9.79736 19.2531 9.8 17.5C9.8 15.638 10.4608 13.93 11.5598 12.6L2.8126 12.6ZM17.5 23.8C19.1709 23.8 20.7733 23.1362 21.9548 21.9548C23.1362 20.7733 23.8 19.1709 23.8 17.5C23.8 15.8291 23.1362 14.2267 21.9548 13.0452C20.7733 11.8637 19.1709 11.2 17.5 11.2C15.8291 11.2 14.2267 11.8637 13.0452 13.0452C11.8637 14.2267 11.2 15.8291 11.2 17.5C11.2 19.1709 11.8637 20.7733 13.0452 21.9548C14.2267 23.1362 15.8291 23.8 17.5 23.8ZM16.2456 14.8456L14.9898 16.1L17.15 16.1C18.1711 16.1 19.1503 16.5056 19.8724 17.2276C20.5944 17.9497 21 18.9289 21 19.95L21 20.3C21 20.4857 20.9263 20.6637 20.795 20.795C20.6637 20.9263 20.4857 21 20.3 21C20.1143 21 19.9363 20.9263 19.805 20.795C19.6737 20.6637 19.6 20.4857 19.6 20.3L19.6 19.95C19.6 19.3002 19.3419 18.6771 18.8824 18.2176C18.4229 17.7581 17.7998 17.5 17.15 17.5L14.9898 17.5L16.2456 18.7544C16.377 18.8858 16.4509 19.0641 16.4509 19.25C16.4509 19.4359 16.377 19.6142 16.2456 19.7456C16.1142 19.877 15.9359 19.9509 15.75 19.9509C15.5641 19.9509 15.3858 19.877 15.2544 19.7456L12.8016 17.2914C12.6716 17.1599 12.5989 16.9823 12.5994 16.7973C12.6 16.6124 12.6737 16.4352 12.8044 16.3044L15.2544 13.8544C15.3858 13.723 15.5641 13.6491 15.75 13.6491C15.9359 13.6491 16.1142 13.723 16.2456 13.8544C16.377 13.9858 16.4509 14.1641 16.4509 14.35C16.4509 14.5359 16.377 14.7142 16.2456 14.8456Z" fill="rgb(255,255,255)" fill-opacity="0.649999976" fill-rule="nonzero" />
</svg>
