<svg viewBox="0 0 28.0005 28" xmlns="http://www.w3.org/2000/svg" xmlns:xlink="http://www.w3.org/1999/xlink" width="28.000488" height="28.000000" fill="none" customFrame="#000000">
	<path id="Vector" d="M7.62711 1.53473C10.0386 0.301834 12.7558 -0.205148 15.4496 0.075234C15.7959 0.111204 16.1136 0.283244 16.333 0.553507C16.5524 0.823771 16.6555 1.17012 16.6195 1.51636C16.5835 1.8626 16.4115 2.18037 16.1412 2.39976C15.871 2.61916 15.5246 2.7222 15.1784 2.68623C12.9895 2.45858 10.7817 2.87074 8.82236 3.87273L8.43386 4.07923C6.51503 5.15612 4.94971 6.76642 3.92761 8.71498L3.73161 9.10874C2.72066 11.2307 2.39188 13.6138 2.79049 15.9302C3.1891 18.2466 4.29552 20.3827 5.95761 22.0447L6.27261 22.3492C7.88803 23.8446 9.90265 24.8392 12.0721 25.2122L12.5061 25.277C14.688 25.566 16.9068 25.2159 18.8936 24.269L19.2856 24.073C21.3008 23.0157 22.9526 21.3782 24.0273 19.3722C25.1021 17.3662 25.5504 15.084 25.3144 12.8205L26.6199 12.6857L27.9254 12.5492C28.2155 15.3348 27.6636 18.1434 26.3409 20.612C25.0181 23.0806 22.9854 25.0958 20.5054 26.397L20.0224 26.6385C17.5772 27.8038 14.8466 28.2348 12.1614 27.8792L11.6259 27.797C8.95714 27.338 6.4788 26.115 4.49111 24.276L4.10261 23.9015C2.05648 21.8562 0.694216 19.2273 0.203159 16.3762C-0.287899 13.5251 0.116367 10.5919 1.36036 7.97998L1.60361 7.49698C2.86203 5.09876 4.78905 3.11703 7.15111 1.79198L7.62711 1.53473ZM21.3856 0.384984C21.5692 0.20166 21.8029 0.0768424 22.0574 0.0262947C22.3118 -0.024253 22.5755 0.00173689 22.8152 0.100982C23.0549 0.200227 23.2598 0.368275 23.4041 0.583902C23.5483 0.79953 23.6254 1.05306 23.6256 1.31248L23.6256 4.37498L26.6881 4.37498L26.8841 4.39248C27.1074 4.42653 27.3182 4.51764 27.496 4.65699C27.6738 4.79635 27.8126 4.97923 27.899 5.18794C27.9854 5.39666 28.0165 5.62415 27.9892 5.84839C27.9619 6.07264 27.8773 6.28605 27.7434 6.46798L27.6156 6.61673L22.3656 11.8667C22.1197 12.1129 21.7861 12.2514 21.4381 12.2517L20.7731 12.2517C20.9821 13.0529 21.0473 13.8848 20.9656 14.7087L20.8886 15.2425C20.6487 16.5738 20.0281 17.8071 19.102 18.7932C18.1759 19.7793 16.9838 20.4759 15.6701 20.7987L15.1399 20.9072C13.8958 21.1122 12.6194 20.9774 11.4456 20.517L10.9504 20.3017C9.81504 19.7518 8.84942 18.9053 8.15561 17.8517L7.87561 17.3897C7.17589 16.1259 6.88431 14.6766 7.04086 13.2405L7.12136 12.705C7.35508 11.4658 7.9192 10.3128 8.75411 9.36773L9.12686 8.97573C10.0319 8.09836 11.1571 7.48165 12.3836 7.19073L12.5166 7.16448C12.8515 7.11838 13.1912 7.20325 13.4651 7.40142C13.7389 7.59958 13.9257 7.89575 13.9866 8.22824C14.0475 8.56073 13.9778 8.90389 13.792 9.18625C13.6062 9.46862 13.3186 9.6684 12.9891 9.74398L12.6654 9.83323C12.0233 10.0392 11.4376 10.3908 10.9539 10.8605L10.7211 11.1037C10.1961 11.6952 9.84612 12.418 9.70086 13.1897L9.65011 13.5257C9.55215 14.4233 9.73432 15.3293 10.1716 16.1192L10.3466 16.408C10.7804 17.0658 11.3838 17.5942 12.0931 17.9375L12.4029 18.074C13.1367 18.3623 13.9349 18.447 14.7129 18.319L15.0436 18.249C15.8647 18.0473 16.6097 17.6121 17.1886 16.9959C17.7675 16.3797 18.1555 15.609 18.3056 14.777L18.3529 14.4445C18.4287 13.6955 18.3099 12.9396 18.0081 12.25L17.6056 12.25L14.9281 14.9275C14.808 15.0564 14.6631 15.1599 14.5021 15.2316C14.3411 15.3033 14.1673 15.3419 13.991 15.345C13.8148 15.3481 13.6397 15.3157 13.4763 15.2497C13.3129 15.1837 13.1644 15.0854 13.0398 14.9608C12.9152 14.8362 12.8169 14.6877 12.7509 14.5243C12.6849 14.3609 12.6525 14.1858 12.6556 14.0096C12.6587 13.8333 12.6973 13.6595 12.769 13.4985C12.8407 13.3375 12.9442 13.1926 13.0731 13.0725L15.7506 10.395L15.7506 6.56248C15.7506 6.21423 15.8889 5.87998 16.1356 5.63498L21.3856 0.384984ZM26.4834 11.3802C26.6548 11.3623 26.8281 11.3783 26.9934 11.4273C27.1586 11.4764 27.3126 11.5575 27.4465 11.666C27.5804 11.7746 27.6916 11.9085 27.7738 12.06C27.8559 12.2115 27.9075 12.3778 27.9254 12.5492L25.3144 12.8205C25.2786 12.4745 25.3817 12.1285 25.6008 11.8585C25.82 11.5884 26.1374 11.4164 26.4834 11.3802ZM18.3756 7.10673L18.3756 9.62498L20.8956 9.62498L23.5206 6.99998L21.0006 6.99998L21.0006 4.47998L18.3756 7.10673Z" fill="rgb(255,255,255)" fill-opacity="0.649999976" fill-rule="nonzero" />
</svg>
