<svg viewBox="0 0 18.8413 18.8413" xmlns="http://www.w3.org/2000/svg" xmlns:xlink="http://www.w3.org/1999/xlink" width="18.841309" height="18.841309" fill="none">
	<rect id="icon-park-solid:edit-name" width="18.841446" height="18.841446" x="0.000000" y="0.000977" fill="rgb(255,255,255)" fill-opacity="0" />
	<g id="Group">
		<path id="Vector" d="M9.42056 7.06476C10.9381 7.06476 12.1683 5.83457 12.1683 4.31705C12.1683 2.79953 10.9381 1.56934 9.42056 1.56934C7.90304 1.56934 6.67285 2.79953 6.67285 4.31705C6.67285 5.83457 7.90304 7.06476 9.42056 7.06476Z" fill="rgb(2,65,111)" fill-rule="evenodd" />
		<path id="Vector" d="M9.42056 7.06476C7.90304 7.06476 6.67285 5.83457 6.67285 4.31705C6.67285 2.79953 7.90304 1.56934 9.42056 1.56934C10.9381 1.56934 12.1683 2.79953 12.1683 4.31705C12.1683 5.83457 10.9381 7.06476 9.42056 7.06476Z" fill-rule="evenodd" stroke="rgb(2,65,111)" stroke-linecap="round" stroke-linejoin="round" stroke-width="2.000000" />
		<path id="Vector" d="M1.56982 16.094C1.56982 12.6252 4.73322 9.81348 8.63537 9.81348" fill-rule="nonzero" stroke="rgb(2,65,111)" stroke-linecap="round" stroke-linejoin="round" stroke-width="2.000000" />
		<path id="Vector" d="M12.1683 16.4866L16.0936 12.5613L14.5234 10.9912L10.5981 14.9165L10.5981 16.4866L12.1683 16.4866Z" fill="rgb(2,65,111)" fill-rule="nonzero" />
		<path id="Vector" d="M16.0936 12.5613L14.5234 10.9912L10.5981 14.9165L10.5981 16.4866L12.1683 16.4866L16.0936 12.5613Z" fill-rule="nonzero" stroke="rgb(2,65,111)" stroke-linecap="round" stroke-linejoin="round" stroke-width="2.000000" />
	</g>
</svg>
