<svg viewBox="0 0 14.9697 14.9697" xmlns="http://www.w3.org/2000/svg" xmlns:xlink="http://www.w3.org/1999/xlink" width="14.969727" height="14.969727" fill="none" customFrame="#000000">
	<path id="Vector" d="M13.5031 10.2074L11.3864 9.96569C11.1375 9.93646 10.8852 9.96401 10.6485 10.0463C10.4118 10.1286 10.1968 10.2634 10.0197 10.4407L8.48639 11.974C6.12089 10.7706 4.19811 8.84786 2.99473 6.48236L4.5364 4.94069C4.89473 4.58236 5.06973 4.08236 5.01139 3.57403L4.76973 1.47403C4.72266 1.06743 4.52762 0.692378 4.22178 0.420353C3.91594 0.148328 3.5207 -0.00164329 3.11139 -0.000974334L1.66973 -0.000974334C0.728062 -0.000974334 -0.0552721 0.782359 0.00306123 1.72403C0.444728 8.84069 6.1364 14.524 13.2447 14.9657C14.1864 15.024 14.9697 14.2407 14.9697 13.299L14.9697 11.8574C14.9781 11.0157 14.3447 10.3074 13.5031 10.2074Z" fill="rgb(135,154,168)" fill-rule="nonzero" />
</svg>
