<svg viewBox="0 0 18.8413 18.8413" xmlns="http://www.w3.org/2000/svg" xmlns:xlink="http://www.w3.org/1999/xlink" width="18.841309" height="18.841309" fill="none">
	<rect id="ic:round-phone" width="18.841444" height="18.841444" x="0.000000" y="0.000977" fill="rgb(255,255,255)" fill-opacity="0" />
	<path id="Vector" d="M15.0968 11.9793L13.1028 11.7516C12.8683 11.7241 12.6307 11.75 12.4077 11.8276C12.1847 11.9051 11.9821 12.0321 11.8153 12.1991L10.3708 13.6436C8.1423 12.5099 6.3309 10.6986 5.19723 8.47007L6.64959 7.01771C6.98716 6.68014 7.15203 6.2091 7.09707 5.73022L6.8694 3.75186C6.82506 3.36882 6.64132 3.01549 6.3532 2.75923C6.06508 2.50296 5.69273 2.36168 5.30714 2.36231L3.94898 2.36231C3.06186 2.36231 2.32391 3.10026 2.37886 3.98738C2.79494 10.6918 8.1569 16.0459 14.8535 16.462C15.7406 16.5169 16.4785 15.779 16.4785 14.8919L16.4785 13.5337C16.4864 12.7408 15.8897 12.0735 15.0968 11.9793Z" fill="rgb(2,65,111)" fill-rule="nonzero" />
</svg>
