<svg viewBox="0 0 20 20" xmlns="http://www.w3.org/2000/svg" xmlns:xlink="http://www.w3.org/1999/xlink" width="20.000000" height="20.000000" fill="none">
	<rect id="icon-park-solid:edit-name" width="20.000000" height="20.000000" x="0.000000" y="0.000000" fill="rgb(255,255,255)" fill-opacity="0" />
	<g id="Group">
		<path id="Vector" d="M10.0002 7.50033C11.611 7.50033 12.9168 6.19449 12.9168 4.58366C12.9168 2.97283 11.611 1.66699 10.0002 1.66699C8.38933 1.66699 7.0835 2.97283 7.0835 4.58366C7.0835 6.19449 8.38933 7.50033 10.0002 7.50033Z" fill="rgb(135,154,168)" fill-rule="evenodd" />
		<path id="Vector" d="M10.0002 7.50033C8.38933 7.50033 7.0835 6.19449 7.0835 4.58366C7.0835 2.97283 8.38933 1.66699 10.0002 1.66699C11.611 1.66699 12.9168 2.97283 12.9168 4.58366C12.9168 6.19449 11.611 7.50033 10.0002 7.50033Z" fill-rule="evenodd" stroke="rgb(135,154,168)" stroke-linecap="round" stroke-linejoin="round" stroke-width="2.000000" />
		<path id="Vector" d="M1.6665 17.0837C1.6665 13.4016 5.02442 10.417 9.1665 10.417" fill-rule="nonzero" stroke="rgb(135,154,168)" stroke-linecap="round" stroke-linejoin="round" stroke-width="2.000000" />
		<path id="Vector" d="M12.9167 17.5003L17.0833 13.3337L15.4167 11.667L11.25 15.8337L11.25 17.5003L12.9167 17.5003Z" fill="rgb(135,154,168)" fill-rule="nonzero" />
		<path id="Vector" d="M17.0833 13.3337L15.4167 11.667L11.25 15.8337L11.25 17.5003L12.9167 17.5003L17.0833 13.3337Z" fill-rule="nonzero" stroke="rgb(135,154,168)" stroke-linecap="round" stroke-linejoin="round" stroke-width="2.000000" />
	</g>
</svg>
