<svg viewBox="0 0 46.6665 46.6667" xmlns="http://www.w3.org/2000/svg" xmlns:xlink="http://www.w3.org/1999/xlink" width="46.666504" height="46.666672" fill="none" customFrame="#000000">
	<path id="Vector" d="M4.66667 42.0003L42 42.0003L42 46.667L4.66667 46.667L4.66667 42.0003ZM44.3333 7.00032C43.7145 7.00032 43.121 7.24615 42.6834 7.68374C42.2458 8.12132 42 8.71482 42 9.33365C42.0004 9.59899 42.0511 9.86185 42.1493 10.1083C42.2454 10.3467 42.3768 10.5693 42.539 10.7687L37.5923 14.7167L32.6527 18.667L28.56 11.4967L24.472 4.32865C24.8224 4.12914 25.1182 3.84621 25.333 3.50499C25.5514 3.15336 25.667 2.74759 25.6667 2.33365C25.6667 1.71482 25.4208 1.12132 24.9833 0.683738C24.5457 0.246153 23.9522 0.000320435 23.3333 0.000320435C22.7145 0.000320435 22.121 0.246153 21.6834 0.683738C21.2458 1.12132 21 1.71482 21 2.33365C20.9997 2.74759 21.1153 3.15336 21.3337 3.50499C21.5485 3.84621 21.8443 4.12914 22.1947 4.32865L18.0997 11.4967L14.0047 18.667L9.06734 14.719L4.12767 10.7687C4.28989 10.5693 4.42124 10.3467 4.51734 10.1083C4.61561 9.86185 4.66628 9.59899 4.66667 9.33365C4.66667 8.87216 4.52982 8.42104 4.27343 8.03732C4.01704 7.65361 3.65262 7.35454 3.22626 7.17794C2.7999 7.00133 2.33075 6.95512 1.87812 7.04516C1.4255 7.13519 1.00974 7.35742 0.683419 7.68374C0.357096 8.01006 0.134868 8.42582 0.0448354 8.87844C-0.0451968 9.33107 0.001011 9.80022 0.177615 10.2266C0.35422 10.6529 0.65329 11.0174 1.037 11.2738C1.42072 11.5301 1.87185 11.667 2.33333 11.667C2.3657 11.6649 2.39777 11.6594 2.429 11.6507C2.45998 11.6395 2.49205 11.6317 2.52467 11.6273L3.59567 24.4817L4.66667 37.3337L42 37.3337L43.071 24.4817L44.142 11.6273C44.1738 11.6319 44.2051 11.6397 44.2353 11.6507C44.2673 11.6596 44.3002 11.665 44.3333 11.667C44.9522 11.667 45.5457 11.4212 45.9833 10.9836C46.4208 10.546 46.6667 9.95249 46.6667 9.33365C46.6667 8.71482 46.4208 8.12132 45.9833 7.68374C45.5457 7.24615 44.9522 7.00032 44.3333 7.00032Z" fill="rgb(255,255,255)" fill-rule="nonzero" />
</svg>
