<svg viewBox="0 0 46.668 44.3345" xmlns="http://www.w3.org/2000/svg" xmlns:xlink="http://www.w3.org/1999/xlink" width="46.667969" height="44.334473" fill="none" customFrame="#000000">
	<path id="Vector" d="M6.41783 0C4.71603 1.03621e-15 3.08392 0.67604 1.88056 1.8794C0.677207 3.08276 0.00116658 4.71486 0.00116658 6.41667L0.00116658 18.6667C1.85768 16.1913 4.62149 14.5548 7.68459 14.1173C10.7477 13.6797 13.8591 14.4768 16.3345 16.3333C18.8099 18.1898 20.4463 20.9537 20.8839 24.0168C21.3215 27.0798 20.5243 30.1913 18.6678 32.6667L18.6678 35L40.2512 35C41.953 35 43.5851 34.324 44.7884 33.1206C45.9918 31.9172 46.6678 30.2851 46.6678 28.5833L46.6678 6.41667C46.6678 4.71486 45.9918 3.08276 44.7884 1.8794C43.5851 0.67604 41.953 1.03621e-15 40.2512 0L6.41783 0ZM11.0845 9.33333L35.5845 9.33333C36.0486 9.33333 36.4938 9.51771 36.8219 9.8459C37.1501 10.1741 37.3345 10.6192 37.3345 11.0833C37.3345 11.5475 37.1501 11.9926 36.8219 12.3208C36.4938 12.649 36.0486 12.8333 35.5845 12.8333L11.0845 12.8333C10.6204 12.8333 10.1753 12.649 9.84706 12.3208C9.51888 11.9926 9.3345 11.5475 9.3345 11.0833C9.3345 10.6192 9.51888 10.1741 9.84706 9.8459C10.1753 9.51771 10.6204 9.33333 11.0845 9.33333ZM23.3345 22.75C23.3345 22.2859 23.5189 21.8408 23.8471 21.5126C24.1753 21.1844 24.6204 21 25.0845 21L35.5845 21C36.0486 21 36.4938 21.1844 36.8219 21.5126C37.1501 21.8408 37.3345 22.2859 37.3345 22.75C37.3345 23.2141 37.1501 23.6592 36.8219 23.9874C36.4938 24.3156 36.0486 24.5 35.5845 24.5L25.0845 24.5C24.6204 24.5 24.1753 24.3156 23.8471 23.9874C23.5189 23.6592 23.3345 23.2141 23.3345 22.75ZM9.3345 16.3333C6.85884 16.3333 4.48457 17.3168 2.73401 19.0673C0.983454 20.8179 2.59052e-15 23.1922 0 25.6678C2.07242e-15 28.1435 0.983454 30.5178 2.73401 32.2683C4.48457 34.0189 6.85884 35.0023 9.3345 35.0023C11.8102 35.0023 14.1844 34.0189 15.935 32.2683C17.6855 30.5178 18.669 28.1435 18.669 25.6678C18.669 23.1922 17.6855 20.8179 15.935 19.0673C14.1844 17.3168 11.8102 16.3333 9.3345 16.3333ZM16.3345 35.0023C14.3862 36.4677 11.9618 37.3357 9.3345 37.3357C6.81017 37.3404 4.35295 36.523 2.3345 35.007L2.3345 42.581C2.3345 43.911 3.74617 44.7277 4.87783 44.142L5.08783 44.0137L9.3345 41.048L13.5812 44.016C13.8264 44.1872 14.1115 44.2928 14.4091 44.3225C14.7067 44.3522 15.007 44.3052 15.2813 44.1858C15.5556 44.0665 15.7947 43.8788 15.9758 43.6407C16.1569 43.4027 16.274 43.1222 16.3158 42.826L16.3345 42.581L16.3345 35.0023Z" fill="rgb(2,65,111)" fill-rule="nonzero" />
</svg>
