<svg viewBox="0 0 31.5 47.25" xmlns="http://www.w3.org/2000/svg" xmlns:xlink="http://www.w3.org/1999/xlink" width="31.500000" height="47.250000" fill="none" customFrame="#000000">
	<path id="Vector" d="M0 0L7.4655 18.13C2.9925 20.909 0 25.8545 0 31.5C0 40.1835 7.06475 47.25 15.75 47.25C24.4352 47.25 31.5 40.1835 31.5 31.5C31.5 25.8563 28.5075 20.9107 24.0345 18.13L31.5 0L27.7165 0L20.8705 16.6215C19.7041 16.2169 18.4941 15.9508 17.2655 15.8288L23.7773 0L19.9937 0L13.4278 15.9425C12.4756 16.0828 11.5384 16.3101 10.6278 16.6215L3.7835 0L0 0ZM7.721 0L12.1678 10.8045L14.0612 6.20725L11.5062 0L7.721 0ZM15.75 19.25C22.5033 19.25 28 24.745 28 31.5C28 38.255 22.5033 43.75 15.75 43.75C8.99675 43.75 3.5 38.255 3.5 31.5C3.5 24.745 8.99675 19.25 15.75 19.25ZM15.75 24.7835L13.706 29.3685L8.75 29.911L12.46 33.243L11.4152 38.1605L15.75 35.6615L20.0847 38.164L19.0418 33.2465L22.75 29.9092L17.794 29.3668L15.75 24.7835Z" fill="rgb(2,65,111)" fill-rule="nonzero" />
</svg>
