<svg viewBox="0 0 38.5 49" xmlns="http://www.w3.org/2000/svg" xmlns:xlink="http://www.w3.org/1999/xlink" width="38.500000" height="49.000000" fill="none" customFrame="#000000">
	<path id="Vector" d="M12.25 0L4.375 0C1.95767 0 0 1.96 0 4.375L0 44.625C0 47.04 1.96 49 4.375 49L34.125 49C36.54 49 38.5 47.04 38.5 44.625L38.5 26.25C38.5 23.9294 37.5781 21.7038 35.9372 20.0628C34.2962 18.4219 32.0706 17.5 29.75 17.5L25.375 17.5C24.2147 17.5 23.1019 17.0391 22.2814 16.2186C21.4609 15.3981 21 14.2853 21 13.125L21 8.75C21 6.42936 20.0781 4.20376 18.4372 2.56282C16.7962 0.921872 14.5706 1.03621e-15 12.25 0ZM27.6733 25.5173C27.8133 25.3308 27.9146 25.1181 27.9713 24.8919C28.0279 24.6656 28.0388 24.4303 28.0032 24.1998C27.9676 23.9693 27.8862 23.7483 27.764 23.5496C27.6417 23.351 27.481 23.1788 27.2913 23.0432C27.1015 22.9076 26.8866 22.8112 26.6591 22.7599C26.4315 22.7085 26.1961 22.7031 25.9664 22.7441C25.7368 22.785 25.5177 22.8715 25.322 22.9983C25.1262 23.1251 24.9578 23.2898 24.8267 23.4827L17.276 34.0527L13.4867 30.2633C13.1549 29.9542 12.7162 29.7859 12.2628 29.7939C11.8094 29.8019 11.3768 29.9856 11.0562 30.3062C10.7356 30.6268 10.5519 31.0594 10.5439 31.5128C10.5359 31.9662 10.7042 32.4049 11.0133 32.7367L16.2633 37.9867C16.443 38.1662 16.6595 38.3044 16.898 38.3918C17.1364 38.4792 17.391 38.5137 17.6441 38.4928C17.8972 38.472 18.1427 38.3963 18.3636 38.271C18.5845 38.1457 18.7755 37.9738 18.9233 37.7673L27.6733 25.5173Z" fill="rgb(255,255,255)" fill-rule="evenodd" />
</svg>
