<svg viewBox="0 0 49 38.5" xmlns="http://www.w3.org/2000/svg" xmlns:xlink="http://www.w3.org/1999/xlink" width="49.000000" height="38.500000" fill="none" customFrame="#000000">
	<path id="Vector" d="M26.25 19.25L31.5 19.25L31.5 22.75L26.25 22.75L26.25 19.25ZM49 7L49 36.75C49 37.2141 48.8156 37.6592 48.4874 37.9874C48.1592 38.3156 47.7141 38.5 47.25 38.5L7 38.5C5.14348 38.5 3.36301 37.7625 2.05025 36.4497C0.737498 35.137 7.77156e-16 33.3565 0 31.5L0 7C0 5.14348 0.737498 3.36301 2.05025 2.05025C3.36301 0.737498 5.14348 1.55431e-15 7 0L10.5 0C10.9641 0 11.4092 0.184375 11.7374 0.512563C12.0656 0.840752 12.25 1.28587 12.25 1.75L12.25 5.25L47.25 5.25C47.7141 5.25 48.1592 5.43437 48.4874 5.76256C48.8156 6.09075 49 6.53587 49 7ZM8.75 3.5L7 3.5C6.07174 3.5 5.1815 3.86875 4.52513 4.52513C3.86875 5.1815 3.5 6.07174 3.5 7L3.5 25.4384C4.56327 24.8219 5.77092 24.4981 7 24.5L8.75 24.5L8.75 3.5ZM35 22.75L35 19.25L38.5 19.25C38.9641 19.25 39.4092 19.0656 39.7374 18.7374C40.0656 18.4092 40.25 17.9641 40.25 17.5C40.25 17.0359 40.0656 16.5908 39.7374 16.2626C39.4092 15.9344 38.9641 15.75 38.5 15.75L35 15.75L35 14C35 13.5359 34.8156 13.0908 34.4874 12.7626C34.1592 12.4344 33.7141 12.25 33.25 12.25C32.7859 12.25 32.3408 12.4344 32.0126 12.7626C31.6844 13.0908 31.5 13.5359 31.5 14L31.5 15.75L26.25 15.75L26.25 14C26.25 13.5359 26.0656 13.0908 25.7374 12.7626C25.4093 12.4344 24.9641 12.25 24.5 12.25C24.0359 12.25 23.5908 12.4344 23.2626 12.7626C22.9344 13.0908 22.75 13.5359 22.75 14L22.75 15.75L19.25 15.75C18.7859 15.75 18.3408 15.9344 18.0126 16.2626C17.6844 16.5908 17.5 17.0359 17.5 17.5C17.5 17.9641 17.6844 18.4092 18.0126 18.7374C18.3408 19.0656 18.7859 19.25 19.25 19.25L22.75 19.25L22.75 22.75L19.25 22.75C18.7859 22.75 18.3408 22.9344 18.0126 23.2626C17.6844 23.5907 17.5 24.0359 17.5 24.5C17.5 24.9641 17.6844 25.4093 18.0126 25.7374C18.3408 26.0656 18.7859 26.25 19.25 26.25L22.75 26.25L22.75 28C22.75 28.4641 22.9344 28.9093 23.2626 29.2374C23.5908 29.5656 24.0359 29.75 24.5 29.75C24.9641 29.75 25.4093 29.5656 25.7374 29.2374C26.0656 28.9093 26.25 28.4641 26.25 28L26.25 26.25L31.5 26.25L31.5 28C31.5 28.4641 31.6844 28.9093 32.0126 29.2374C32.3408 29.5656 32.7859 29.75 33.25 29.75C33.7141 29.75 34.1592 29.5656 34.4874 29.2374C34.8156 28.9093 35 28.4641 35 28L35 26.25L38.5 26.25C38.9641 26.25 39.4092 26.0656 39.7374 25.7374C40.0656 25.4093 40.25 24.9641 40.25 24.5C40.25 24.0359 40.0656 23.5907 39.7374 23.2626C39.4092 22.9344 38.9641 22.75 38.5 22.75L35 22.75Z" fill="rgb(2,65,111)" fill-rule="nonzero" />
</svg>
