<svg viewBox="0 0 46.7134 46.6667" xmlns="http://www.w3.org/2000/svg" xmlns:xlink="http://www.w3.org/1999/xlink" width="46.713379" height="46.666656" fill="none" customFrame="#000000">
	<path id="Vector" d="M29.9133 4.667C28.9567 1.96034 26.39 0.000335693 23.3333 0.000335693C20.2767 0.000335693 17.7333 1.96034 16.7533 4.667L0 4.667L0 9.33367L5.97333 9.33367L0.163333 24.8503C0.0699999 25.107 0.0233333 25.387 0.0233333 25.667C0.0233333 30.8237 4.2 35.0003 9.35667 35.0003C14.5133 35.0003 18.69 30.8237 18.69 25.667C18.69 25.387 18.6433 25.107 18.55 24.8503L12.74 9.33367L16.8 9.33367C17.5 11.317 19.0633 12.857 21.0467 13.5803L21.0467 42.0003L0 42.0003L0 46.667L46.6667 46.667L46.6667 42.0003L25.6667 42.0003L25.6667 13.5803C27.65 12.8803 29.19 11.317 29.9133 9.33367L33.9733 9.33367L28.1633 24.8503C28.07 25.107 28.0233 25.387 28.0233 25.667C28.0233 30.8237 32.2 35.0003 37.3567 35.0003C42.5133 35.0003 46.69 30.8237 46.69 25.667C46.69 25.387 46.6433 25.107 46.55 24.8503L40.74 9.33367L46.7133 9.33367L46.7133 4.667L29.96 4.667L29.9133 4.667ZM4.83 25.667L9.33333 13.6503L13.8367 25.667L4.83 25.667ZM32.83 25.667L37.3333 13.6503L41.8367 25.667L32.83 25.667ZM23.3333 9.33367C22.05 9.33367 21 8.28367 21 7.00034C21 5.717 22.05 4.667 23.3333 4.667C24.6167 4.667 25.6667 5.717 25.6667 7.00034C25.6667 8.28367 24.6167 9.33367 23.3333 9.33367Z" fill="rgb(255,255,255)" fill-opacity="0.800000012" fill-rule="nonzero" />
</svg>
