<svg viewBox="0 0 37.3335 46.6667" xmlns="http://www.w3.org/2000/svg" xmlns:xlink="http://www.w3.org/1999/xlink" width="37.333496" height="46.666687" fill="none" customFrame="#000000">
	<path id="Vector" d="M23.3333 0.000305176L4.66667 0.000305176C3.42899 0.000305176 2.242 0.49197 1.36683 1.36714C0.491665 2.24231 4.14483e-15 3.4293 0 4.66697L0 42.0003C0 44.567 2.1 46.667 4.66667 46.667L32.6667 46.667C35.2333 46.667 37.3333 44.567 37.3333 42.0003L37.3333 14.0003L23.3333 0.000305176ZM24.5 39.4336L18.6667 36.167L12.8333 39.667L14.4667 33.1336L9.33333 28.7003L16.1 28.2336L18.6667 21.9336L21.2333 28.0003L28 28.467L22.8667 32.9003L24.5 39.4336ZM21 16.3336L21 3.50031L33.8333 16.3336L21 16.3336Z" fill="rgb(255,255,255)" fill-opacity="0.800000012" fill-rule="nonzero" />
</svg>
