<svg viewBox="0 0 51.3335 37.3333" xmlns="http://www.w3.org/2000/svg" xmlns:xlink="http://www.w3.org/1999/xlink" width="51.333496" height="37.333336" fill="none" customFrame="#000000">
	<path id="Vector" d="M32.6667 -0.000328064C37.6174 -0.000328064 42.3653 1.96633 45.866 5.46701C49.3667 8.96769 51.3333 13.7156 51.3333 18.6663C51.3333 23.617 49.3667 28.365 45.866 31.8657C42.3653 35.3663 37.6174 37.333 32.6667 37.333C27.716 37.333 22.968 35.3663 19.4673 31.8657C15.9667 28.365 14 23.617 14 18.6663C14 13.7156 15.9667 8.96769 19.4673 5.46701C22.968 1.96633 27.716 -0.000328064 32.6667 -0.000328064ZM32.6667 4.66634C28.9536 4.66634 25.3927 6.14134 22.7672 8.76684C20.1417 11.3924 18.6667 14.9533 18.6667 18.6663C18.6667 22.3794 20.1417 25.9403 22.7672 28.5658C25.3927 31.1913 28.9536 32.6663 32.6667 32.6663C36.3797 32.6663 39.9407 31.1913 42.5662 28.5658C45.1917 25.9403 46.6667 22.3794 46.6667 18.6663C46.6667 14.9533 45.1917 11.3924 42.5662 8.76684C39.9407 6.14134 36.3797 4.66634 32.6667 4.66634ZM30.3333 9.33301L33.8333 9.33301L33.8333 18.153L39.27 23.5897L36.7967 26.063L30.3333 19.5997L30.3333 9.33301ZM2.33333 32.6663C1.71449 32.6663 1.121 32.4205 0.683417 31.9829C0.245833 31.5453 5.18104e-16 30.9518 0 30.333C-2.59052e-16 29.7142 0.245833 29.1207 0.683417 28.6831C1.121 28.2455 1.71449 27.9997 2.33333 27.9997L11.27 27.9997C11.9933 29.6563 12.9267 31.2197 14 32.6663L2.33333 32.6663ZM4.66667 20.9997C4.04783 20.9997 3.45434 20.7538 3.01675 20.3163C2.57917 19.8787 2.33333 19.2852 2.33333 18.6663C2.33333 18.0475 2.57917 17.454 3.01675 17.0164C3.45434 16.5788 4.04783 16.333 4.66667 16.333L9.45 16.333L9.33333 18.6663L9.45 20.9997L4.66667 20.9997ZM7 9.33301C6.38116 9.33301 5.78767 9.08717 5.35008 8.64959C4.9125 8.212 4.66667 7.61851 4.66667 6.99967C4.66667 6.38083 4.9125 5.78734 5.35008 5.34976C5.78767 4.91217 6.38116 4.66634 7 4.66634L14 4.66634C12.9267 6.11301 11.9933 7.67634 11.27 9.33301L7 9.33301Z" fill="rgb(255,255,255)" fill-opacity="0.800000012" fill-rule="nonzero" />
</svg>
