<svg viewBox="0 0 49 46.6667" xmlns="http://www.w3.org/2000/svg" xmlns:xlink="http://www.w3.org/1999/xlink" width="49.000000" height="46.666687" fill="none" customFrame="#000000">
	<path id="Vector" d="M36.1667 21C39.5703 21 42.8345 22.3521 45.2412 24.7588C47.6479 27.1655 49 30.4297 49 33.8333C49 37.2369 47.6479 40.5012 45.2412 42.9079C42.8345 45.3146 39.5703 46.6667 36.1667 46.6667C32.7631 46.6667 29.4988 45.3146 27.0921 42.9079C24.6854 40.5012 23.3333 37.2369 23.3333 33.8333C23.3333 30.4297 24.6854 27.1655 27.0921 24.7588C29.4988 22.3521 32.7631 21 36.1667 21ZM36.1667 25.6667L35.9567 25.683C35.7236 25.7256 35.5089 25.8382 35.3414 26.0057C35.1738 26.1733 35.0613 26.3879 35.0187 26.621L35 26.8333L35 32.6667L29.162 32.6667L28.952 32.6853C28.7189 32.7279 28.5043 32.8405 28.3367 33.008C28.1691 33.1756 28.0566 33.3902 28.014 33.6233L27.9953 33.8333L28.014 34.0433C28.0566 34.2764 28.1691 34.4911 28.3367 34.6586C28.5043 34.8262 28.7189 34.9388 28.952 34.9813L29.162 35L35 35L35 40.8403L35.0187 41.0503C35.0613 41.2834 35.1738 41.4981 35.3414 41.6656C35.5089 41.8332 35.7236 41.9458 35.9567 41.9883L36.1667 42.007L36.3767 41.9883C36.6098 41.9458 36.8244 41.8332 36.992 41.6656C37.1595 41.4981 37.2721 41.2834 37.3147 41.0503L37.3333 40.8403L37.3333 35L43.176 35.0023L43.386 34.9837C43.6191 34.9411 43.8337 34.8285 44.0013 34.661C44.1688 34.4934 44.2814 34.2788 44.324 34.0457L44.3427 33.8357L44.324 33.6257C44.2813 33.3922 44.1684 33.1774 44.0003 33.0098C43.8323 32.8422 43.6172 32.7298 43.3837 32.6877L43.1737 32.669L37.3333 32.669L37.3333 26.8357L37.3147 26.6257C37.2725 26.3921 37.1601 26.177 36.9925 26.009C36.8249 25.841 36.6101 25.7281 36.3767 25.6853L36.1667 25.6667ZM28.5927 16.3333C29.5163 16.3335 30.4236 16.5774 31.2229 17.0403C32.0222 17.5033 32.6852 18.1689 33.145 18.97C30.7324 19.4616 28.4757 20.5331 26.5697 22.0919C24.6637 23.6506 23.1658 25.6499 22.2052 27.917C21.2446 30.1841 20.8502 32.6509 21.0561 35.1045C21.262 37.5581 22.062 39.9247 23.387 42L23.3403 41.9977C21.9611 41.998 20.5952 41.7265 19.3209 41.1988C18.0466 40.6712 16.8887 39.8976 15.9134 38.9223C14.9381 37.947 14.1645 36.7891 13.6368 35.5148C13.1091 34.2404 12.8377 32.8746 12.838 31.4953L12.838 21.5833C12.838 20.1909 13.3911 18.8556 14.3757 17.871C15.3603 16.8865 16.6956 16.3333 18.088 16.3333L28.5927 16.3333ZM12.614 16.3333C11.3785 17.619 10.6371 19.3 10.521 21.0793L10.5047 21.5833L10.5047 31.4977C10.5047 33.474 10.9503 35.3453 11.7483 37.016C10.9768 37.226 10.1718 37.3318 9.33333 37.3333C8.10747 37.3333 6.89361 37.0918 5.76108 36.6227C4.62856 36.1535 3.59956 35.4658 2.73285 34.5988C1.86613 33.7319 1.1787 32.7027 0.709788 31.5701C0.240882 30.4375 -0.000306175 29.2235 2.91693e-07 27.9977L2.91693e-07 21.5833C-0.000163132 20.253 0.50469 18.9723 1.41253 17.9999C2.32037 17.0275 3.56349 16.4361 4.89067 16.345L5.25 16.3333L12.614 16.3333ZM41.4167 16.3333C42.8091 16.3333 44.1444 16.8865 45.129 17.871C46.1135 18.8556 46.6667 20.1909 46.6667 21.5833L46.6667 22.89C43.8454 20.176 40.0814 18.6621 36.1667 18.6667L35.5997 18.6783C35.2357 17.8093 34.7153 17.0145 34.0643 16.3333L41.4167 16.3333ZM38.5 2.33333C40.0471 2.33333 41.5308 2.94792 42.6248 4.04188C43.7188 5.13584 44.3333 6.61957 44.3333 8.16667C44.3333 9.71376 43.7188 11.1975 42.6248 12.2915C41.5308 13.3854 40.0471 14 38.5 14C36.9529 14 35.4692 13.3854 34.3752 12.2915C33.2812 11.1975 32.6667 9.71376 32.6667 8.16667C32.6667 6.61957 33.2812 5.13584 34.3752 4.04188C35.4692 2.94792 36.9529 2.33333 38.5 2.33333ZM23.3333 0C25.1898 1.03621e-15 26.9703 0.737498 28.2831 2.05025C29.5958 3.36301 30.3333 5.14349 30.3333 7C30.3333 8.85652 29.5958 10.637 28.2831 11.9497C26.9703 13.2625 25.1898 14 23.3333 14C21.4768 14 19.6963 13.2625 18.3836 11.9497C17.0708 10.637 16.3333 8.85652 16.3333 7C16.3333 5.14349 17.0708 3.36301 18.3836 2.05025C19.6963 0.737498 21.4768 2.07242e-15 23.3333 0ZM8.16667 2.33333C9.71376 2.33333 11.1975 2.94792 12.2915 4.04188C13.3854 5.13584 14 6.61957 14 8.16667C14 9.71376 13.3854 11.1975 12.2915 12.2915C11.1975 13.3854 9.71376 14 8.16667 14C6.61957 14 5.13584 13.3854 4.04188 12.2915C2.94792 11.1975 2.33333 9.71376 2.33333 8.16667C2.33333 6.61957 2.94792 5.13584 4.04188 4.04188C5.13584 2.94792 6.61957 2.33333 8.16667 2.33333Z" fill="rgb(2,65,111)" fill-rule="nonzero" />
</svg>
