<svg viewBox="0 0 30 30" xmlns="http://www.w3.org/2000/svg" xmlns:xlink="http://www.w3.org/1999/xlink" width="30.000000" height="30.000000" fill="none">
	<defs>
		<linearGradient id="paint_linear_2" x1="1500" x2="1500" y1="0" y2="3000" gradientUnits="userSpaceOnUse">
			<stop stop-color="rgb(42,171,238)" offset="0" stop-opacity="1" />
			<stop stop-color="rgb(34,158,217)" offset="1" stop-opacity="1" />
		</linearGradient>
	</defs>
	<rect id="logos:telegram" width="30.000000" height="30.000000" x="0.000000" y="0.000000" fill="rgb(255,255,255)" fill-opacity="0" />
	<path id="Vector" d="M15 0C11.0227 0 7.20469 1.58133 4.39453 4.39336C1.5815 7.20652 0.000804958 11.0217 0 15C3.747e-15 18.9766 1.58203 22.7946 4.39453 25.6066C7.20469 28.4187 11.0227 30 15 30C18.9773 30 22.7953 28.4187 25.6055 25.6066C28.418 22.7946 30 18.9766 30 15C30 11.0234 28.418 7.20539 25.6055 4.39336C22.7953 1.58133 18.9773 0 15 0Z" fill="url(#paint_linear_2)" fill-rule="nonzero" />
	<path id="Vector" d="M6.78956 14.8411C11.163 12.9361 14.0786 11.6801 15.5364 11.0733C19.7036 9.34052 20.5685 9.03958 21.1333 9.02939C21.2575 9.02739 21.5341 9.0581 21.7146 9.20399C21.8646 9.32704 21.9067 9.49345 21.9278 9.61028C21.9466 9.727 21.9724 9.99302 21.9513 10.2007C21.7263 12.5725 20.7489 18.3283 20.2521 20.985C20.0435 22.109 19.6286 22.4859 19.2278 22.5227C18.356 22.6029 17.695 21.9471 16.8513 21.3942C15.5317 20.5286 14.7864 19.99 13.5044 19.1456C12.0232 18.1697 12.9841 17.6332 13.8278 16.7566C14.0482 16.5272 17.8872 13.0361 17.9599 12.7195C17.9692 12.6799 17.9786 12.5322 17.8896 12.4544C17.8028 12.3764 17.6739 12.4031 17.5802 12.4242C17.4466 12.4542 15.3396 13.8483 11.2521 16.6061C10.6544 17.0172 10.113 17.2176 9.6255 17.2071C9.09112 17.1956 8.05987 16.9043 7.29347 16.6554C6.35597 16.35 5.60831 16.1885 5.67394 15.6698C5.70675 15.3998 6.0794 15.1235 6.78956 14.8411Z" fill="rgb(255,255,255)" fill-rule="nonzero" />
</svg>
