<svg width="16" height="13" viewBox="0 0 16 13" fill="none" xmlns="http://www.w3.org/2000/svg">
<path d="M1.58333 12.6667C1.14792 12.6667 0.775306 12.5118 0.4655 12.202C0.155694 11.8922 0.000527778 11.5193 0 11.0833V1.58333C0 1.14792 0.155167 0.775305 0.4655 0.4655C0.775833 0.155694 1.14844 0.000527778 1.58333 0H14.25C14.6854 0 15.0583 0.155167 15.3686 0.4655C15.679 0.775833 15.8339 1.14844 15.8333 1.58333V11.0833C15.8333 11.5187 15.6784 11.8916 15.3686 12.202C15.0588 12.5123 14.6859 12.6672 14.25 12.6667H1.58333ZM7.91667 7.125L14.25 3.16667V1.58333L7.91667 5.54167L1.58333 1.58333V3.16667L7.91667 7.125Z" fill="#58ADEB"/>
</svg>
