<svg viewBox="0 0 46 46" xmlns="http://www.w3.org/2000/svg" xmlns:xlink="http://www.w3.org/1999/xlink" width="46.000000" height="46.000000" fill="none" customFrame="url(#clipPath_3)">
	<defs>
		<clipPath id="clipPath_3">
			<rect width="46.000000" height="46.000000" x="0.000000" y="0.000000" rx="8.000000" fill="rgb(255,255,255)" />
		</clipPath>
	</defs>
	<rect id="Frame 2072750707" width="46.000000" height="46.000000" x="0.000000" y="0.000000" rx="8.000000" fill="rgb(2,65,111)" />
	<path id="03" d="M18.312 28.448C17.5013 28.448 16.8133 28.304 16.248 28.016C15.6827 27.7173 15.224 27.3067 14.872 26.784C14.52 26.2507 14.2587 25.6373 14.088 24.944C13.928 24.24 13.848 23.4827 13.848 22.672C13.848 21.8613 13.928 21.1093 14.088 20.416C14.248 19.712 14.504 19.0987 14.856 18.576C15.2187 18.0427 15.6827 17.6267 16.248 17.328C16.824 17.0293 17.512 16.88 18.312 16.88C19.1653 16.88 19.8747 17.04 20.44 17.36C21.016 17.68 21.4747 18.1173 21.816 18.672C22.168 19.216 22.4133 19.8347 22.552 20.528C22.7013 21.2213 22.776 21.936 22.776 22.672C22.776 23.408 22.7013 24.1227 22.552 24.816C22.4027 25.5093 22.1573 26.128 21.816 26.672C21.4747 27.216 21.016 27.648 20.44 27.968C19.864 28.288 19.1547 28.448 18.312 28.448ZM18.312 26.896C18.8987 26.896 19.3733 26.768 19.736 26.512C20.0987 26.2453 20.376 25.8987 20.568 25.472C20.76 25.0453 20.888 24.5867 20.952 24.096C21.0267 23.6053 21.064 23.1307 21.064 22.672C21.064 22.224 21.0267 21.7547 20.952 21.264C20.888 20.7627 20.76 20.2987 20.568 19.872C20.376 19.4453 20.0987 19.0987 19.736 18.832C19.384 18.5653 18.9147 18.432 18.328 18.432C17.7307 18.432 17.2453 18.5653 16.872 18.832C16.5093 19.0987 16.232 19.4453 16.04 19.872C15.848 20.2987 15.72 20.7573 15.656 21.248C15.592 21.7387 15.56 22.2133 15.56 22.672C15.56 23.1307 15.592 23.6053 15.656 24.096C15.72 24.5867 15.8427 25.0453 16.024 25.472C16.216 25.8987 16.4933 26.2453 16.856 26.512C17.2293 26.768 17.7147 26.896 18.312 26.896ZM28.0094 28.448C27.5294 28.448 27.0547 28.3947 26.5854 28.288C26.116 28.1813 25.6787 28.016 25.2734 27.792C24.8787 27.568 24.5427 27.2693 24.2654 26.896C23.9987 26.5227 23.828 26.0693 23.7534 25.536L25.4654 25.536C25.5827 25.8773 25.7747 26.1493 26.0414 26.352C26.3187 26.544 26.628 26.6827 26.9694 26.768C27.3214 26.8533 27.6734 26.896 28.0254 26.896C28.26 26.896 28.5107 26.8747 28.7774 26.832C29.0547 26.7893 29.3107 26.704 29.5454 26.576C29.7907 26.448 29.988 26.2613 30.1374 26.016C30.2867 25.7707 30.3614 25.456 30.3614 25.072C30.3614 24.6987 30.292 24.4 30.1534 24.176C30.0147 23.9413 29.828 23.76 29.5934 23.632C29.3694 23.504 29.1134 23.4187 28.8254 23.376C28.5374 23.3333 28.2387 23.312 27.9294 23.312L26.7774 23.312L26.7774 21.84L27.4974 21.84C27.8387 21.84 28.1587 21.808 28.4574 21.744C28.756 21.6693 29.012 21.568 29.2254 21.44C29.4494 21.3013 29.6254 21.1253 29.7534 20.912C29.8814 20.688 29.9454 20.416 29.9454 20.096C29.9454 19.648 29.8494 19.3067 29.6574 19.072C29.4654 18.8267 29.2147 18.656 28.9054 18.56C28.596 18.464 28.26 18.416 27.8974 18.416C27.5987 18.416 27.3 18.464 27.0014 18.56C26.7134 18.6453 26.4574 18.784 26.2334 18.976C26.0094 19.168 25.86 19.4133 25.7854 19.712L24.1214 19.712C24.1854 19.2107 24.3347 18.784 24.5694 18.432C24.8147 18.0693 25.1134 17.7707 25.4654 17.536C25.828 17.3013 26.228 17.136 26.6654 17.04C27.1027 16.9333 27.556 16.88 28.0254 16.88C28.5054 16.88 28.9587 16.9333 29.3854 17.04C29.8227 17.136 30.2067 17.3013 30.5374 17.536C30.868 17.7707 31.1294 18.08 31.3214 18.464C31.524 18.8373 31.6254 19.296 31.6254 19.84C31.6254 20.2133 31.5614 20.56 31.4334 20.88C31.316 21.2 31.1347 21.4827 30.8894 21.728C30.6547 21.9627 30.3667 22.16 30.0254 22.32C30.484 22.416 30.868 22.592 31.1774 22.848C31.4867 23.104 31.716 23.4187 31.8654 23.792C32.0254 24.1547 32.1054 24.56 32.1054 25.008C32.1054 25.712 31.9774 26.288 31.7214 26.736C31.4654 27.184 31.1294 27.5307 30.7134 27.776C30.308 28.0213 29.8654 28.1973 29.3854 28.304C28.9054 28.4 28.4467 28.448 28.0094 28.448Z" fill="rgb(255,255,255)" fill-rule="nonzero" />
</svg>
