<svg viewBox="0 0 46 46" xmlns="http://www.w3.org/2000/svg" xmlns:xlink="http://www.w3.org/1999/xlink" width="46.000000" height="46.000000" fill="none" customFrame="url(#clipPath_2)">
	<defs>
		<clipPath id="clipPath_2">
			<rect width="46.000000" height="46.000000" x="0.000000" y="0.000000" rx="8.000000" fill="rgb(255,255,255)" />
		</clipPath>
	</defs>
	<rect id="Frame 2072750707" width="46.000000" height="46.000000" x="0.000000" y="0.000000" rx="8.000000" fill="rgb(2,65,111)" />
	<path id="04" d="M17.812 28.448C17.0013 28.448 16.3133 28.304 15.748 28.016C15.1827 27.7173 14.724 27.3067 14.372 26.784C14.02 26.2507 13.7587 25.6373 13.588 24.944C13.428 24.24 13.348 23.4827 13.348 22.672C13.348 21.8613 13.428 21.1093 13.588 20.416C13.748 19.712 14.004 19.0987 14.356 18.576C14.7187 18.0427 15.1827 17.6267 15.748 17.328C16.324 17.0293 17.012 16.88 17.812 16.88C18.6653 16.88 19.3747 17.04 19.94 17.36C20.516 17.68 20.9747 18.1173 21.316 18.672C21.668 19.216 21.9133 19.8347 22.052 20.528C22.2013 21.2213 22.276 21.936 22.276 22.672C22.276 23.408 22.2013 24.1227 22.052 24.816C21.9027 25.5093 21.6573 26.128 21.316 26.672C20.9747 27.216 20.516 27.648 19.94 27.968C19.364 28.288 18.6547 28.448 17.812 28.448ZM17.812 26.896C18.3987 26.896 18.8733 26.768 19.236 26.512C19.5987 26.2453 19.876 25.8987 20.068 25.472C20.26 25.0453 20.388 24.5867 20.452 24.096C20.5267 23.6053 20.564 23.1307 20.564 22.672C20.564 22.224 20.5267 21.7547 20.452 21.264C20.388 20.7627 20.26 20.2987 20.068 19.872C19.876 19.4453 19.5987 19.0987 19.236 18.832C18.884 18.5653 18.4147 18.432 17.828 18.432C17.2307 18.432 16.7453 18.5653 16.372 18.832C16.0093 19.0987 15.732 19.4453 15.54 19.872C15.348 20.2987 15.22 20.7573 15.156 21.248C15.092 21.7387 15.06 22.2133 15.06 22.672C15.06 23.1307 15.092 23.6053 15.156 24.096C15.22 24.5867 15.3427 25.0453 15.524 25.472C15.716 25.8987 15.9933 26.2453 16.356 26.512C16.7293 26.768 17.2147 26.896 17.812 26.896ZM29.4134 28.32L29.4134 26.128L23.3974 26.128L23.3974 24.848L28.8374 17.008L31.0934 17.008L31.0934 24.592L32.4054 24.592L32.4054 26.128L31.0934 26.128L31.0934 28.32L29.4134 28.32ZM25.3974 24.592L29.4134 24.592L29.4134 18.688L25.3974 24.592Z" fill="rgb(255,255,255)" fill-rule="nonzero" />
</svg>
