<svg width="20" height="20" viewBox="0 0 20 20" fill="none" xmlns="http://www.w3.org/2000/svg">
<path d="M4.58339 9.99984C5.27167 9.99982 5.94667 10.1892 6.53446 10.5473C7.12225 10.9054 7.60015 11.4184 7.91582 12.03C8.23148 12.6416 8.37273 13.3283 8.32409 14.0148C8.27545 14.7014 8.0388 15.3613 7.64006 15.9223L9.81672 18.0998C9.87813 18.1571 9.92738 18.2261 9.96154 18.3027C9.9957 18.3794 10.0141 18.4621 10.0155 18.5461C10.017 18.63 10.0016 18.7133 9.97016 18.7912C9.93872 18.869 9.89194 18.9397 9.83259 18.999C9.77324 19.0584 9.70254 19.1052 9.62472 19.1366C9.5469 19.168 9.46354 19.1835 9.37962 19.182C9.2957 19.1805 9.21294 19.1621 9.13627 19.128C9.05961 19.0938 8.99061 19.0446 8.93339 18.9832L6.75589 16.8065C6.27487 17.1484 5.71995 17.3719 5.13627 17.4589C4.55259 17.5459 3.95661 17.4939 3.39681 17.3071C2.83701 17.1204 2.32918 16.8041 1.91462 16.3842C1.50007 15.9642 1.19048 15.4523 1.01105 14.8901C0.831614 14.3279 0.787392 13.7313 0.88198 13.1488C0.976568 12.5663 1.2073 12.0143 1.5554 11.5378C1.9035 11.0613 2.35916 10.6736 2.88531 10.4064C3.41146 10.1391 3.99326 9.99985 4.58339 9.99984ZM18.3334 14.7915C18.3334 15.1472 18.2633 15.4993 18.1272 15.8279C17.9911 16.1565 17.7916 16.4551 17.5401 16.7066C17.2886 16.9581 16.9901 17.1576 16.6615 17.2937C16.3329 17.4298 15.9807 17.4998 15.6251 17.4998H10.3959L8.68756 15.7915C9.19825 14.7636 9.3047 13.5816 8.98589 12.479C9.04478 12.4929 9.10506 12.4998 9.16672 12.4998H10.8334C11.0544 12.4998 11.2664 12.412 11.4226 12.2558C11.5789 12.0995 11.6667 11.8875 11.6667 11.6665H15.6251C16.6734 11.6665 17.6251 11.2582 18.3334 10.5915V14.7915ZM4.58339 11.2498C3.92035 11.2498 3.28446 11.5132 2.81562 11.9821C2.34678 12.4509 2.08339 13.0868 2.08339 13.7498C2.08339 14.4129 2.34678 15.0488 2.81562 15.5176C3.28446 15.9864 3.92035 16.2498 4.58339 16.2498C5.24643 16.2498 5.88232 15.9864 6.35116 15.5176C6.82 15.0488 7.08339 14.4129 7.08339 13.7498C7.08339 13.0868 6.82 12.4509 6.35116 11.9821C5.88232 11.5132 5.24643 11.2498 4.58339 11.2498ZM11.4584 1.6665C11.9557 1.6665 12.4326 1.86405 12.7842 2.21568C13.1358 2.56731 13.3334 3.04422 13.3334 3.5415V4.99984H15.6251C15.6717 4.99984 15.7181 5.00095 15.7642 5.00317C16.4704 5.03822 17.135 5.34807 17.6158 5.86653C18.0966 6.38498 18.3556 7.07092 18.3374 7.77778C18.3193 8.48464 18.0254 9.15636 17.5185 9.64943C17.0117 10.1425 16.3322 10.4178 15.6251 10.4165H11.6667V9.99984C11.6667 9.77882 11.5789 9.56686 11.4226 9.41058C11.2664 9.2543 11.0544 9.1665 10.8334 9.1665H9.16672C8.94571 9.1665 8.73375 9.2543 8.57747 9.41058C8.42119 9.56686 8.33339 9.77882 8.33339 9.99984V10.4165H7.72672C6.87759 9.61282 5.75255 9.16543 4.58339 9.1665C3.83506 9.1665 3.12922 9.3465 2.50589 9.66484C2.22365 9.39645 2.00282 9.07018 1.85855 8.70842C1.71427 8.34665 1.64997 7.95796 1.67006 7.569C1.70573 6.87568 2.00629 6.22252 2.50967 5.74442C3.01305 5.26632 3.68081 4.99977 4.37506 4.99984H6.66672V3.5415C6.66672 3.04422 6.86427 2.56731 7.2159 2.21568C7.56753 1.86405 8.04444 1.6665 8.54172 1.6665H11.4584ZM8.54172 2.9165C8.37596 2.9165 8.21699 2.98235 8.09978 3.09956C7.98257 3.21677 7.91672 3.37574 7.91672 3.5415V4.99984H12.0834V3.5415C12.0834 3.37574 12.0175 3.21677 11.9003 3.09956C11.7831 2.98235 11.6241 2.9165 11.4584 2.9165H8.54172Z" fill="#222222"/>
</svg>
