<svg width="20" height="20" viewBox="0 0 20 20" fill="none" xmlns="http://www.w3.org/2000/svg">
<path d="M14.1667 9.16667V4.16667C14.1667 3.25 13.4167 2.5 12.5 2.5H7.5C6.58333 2.5 5.83333 3.25 5.83333 4.16667V5.83333H4.16667C3.25 5.83333 2.5 6.58333 2.5 7.5V15.8333C2.5 16.75 3.25 17.5 4.16667 17.5H8.33333C8.79167 17.5 9.16667 17.125 9.16667 16.6667V14.1667H10.8333V16.6667C10.8333 17.125 11.2083 17.5 11.6667 17.5H15.8333C16.75 17.5 17.5 16.75 17.5 15.8333V10.8333C17.5 9.91667 16.75 9.16667 15.8333 9.16667H14.1667ZM5.83333 15.8333H4.16667V14.1667H5.83333V15.8333ZM5.83333 12.5H4.16667V10.8333H5.83333V12.5ZM5.83333 9.16667H4.16667V7.5H5.83333V9.16667ZM9.16667 12.5H7.5V10.8333H9.16667V12.5ZM9.16667 9.16667H7.5V7.5H9.16667V9.16667ZM9.16667 5.83333H7.5V4.16667H9.16667V5.83333ZM12.5 12.5H10.8333V10.8333H12.5V12.5ZM12.5 9.16667H10.8333V7.5H12.5V9.16667ZM12.5 5.83333H10.8333V4.16667H12.5V5.83333ZM15.8333 15.8333H14.1667V14.1667H15.8333V15.8333ZM15.8333 12.5H14.1667V10.8333H15.8333V12.5Z" fill="white"/>
</svg>
