<svg viewBox="0 0 54 54" xmlns="http://www.w3.org/2000/svg" xmlns:xlink="http://www.w3.org/1999/xlink" width="54.000000" height="54.000000" fill="none" customFrame="url(#clipPath_4)">
	<defs>
		<clipPath id="clipPath_4">
			<rect width="54.000000" height="54.000000" x="0.000000" y="0.000000" rx="8.000000" fill="rgb(255,255,255)" />
		</clipPath>
		<clipPath id="clipPath_5">
			<rect width="24.000000" height="24.000000" x="15.000000" y="15.000000" fill="rgb(255,255,255)" />
		</clipPath>
	</defs>
	<rect id="Frame 2072750770" width="54.000000" height="54.000000" x="0.000000" y="0.000000" rx="8.000000" fill="rgb(2,65,111)" />
	<g id="fluent:shield-checkmark-20-filled" clip-path="url(#clipPath_5)" customFrame="url(#clipPath_5)">
		<rect id="fluent:shield-checkmark-20-filled" width="24.000000" height="24.000000" x="15.000000" y="15.000000" fill="rgb(255,255,255)" fill-opacity="0" />
		<path id="Vector" d="M26.6677 17.5009C26.7662 17.4354 26.8818 17.4004 27.0001 17.4004C27.1184 17.4004 27.234 17.4354 27.3325 17.5009C29.5979 19.0281 32.1804 20.0214 34.8853 20.4061C35.0282 20.4266 35.159 20.4979 35.2535 20.607C35.3481 20.7162 35.4001 20.8557 35.4001 21.0001L35.4001 26.5201C34.0538 25.8325 32.5123 25.6278 31.0333 25.9404C29.5543 26.253 28.2274 27.0638 27.2744 28.2373C26.3215 29.4109 25.8003 30.876 25.798 32.3877C25.7957 33.8994 26.3124 35.366 27.2617 36.5425L27.2161 36.5605C27.0771 36.6141 26.9231 36.6141 26.7841 36.5605C21.3697 34.4761 18.6001 31.0681 18.6001 26.4001L18.6001 21.0001C18.6001 20.8555 18.6523 20.7158 18.7471 20.6067C18.8419 20.4976 18.973 20.4263 19.1161 20.4061C21.8206 20.0213 24.4026 19.0279 26.6677 17.5009ZM37.8001 32.4001C37.8001 30.9679 37.2312 29.5944 36.2185 28.5817C35.2058 27.569 33.8323 27.0001 32.4001 27.0001C30.9679 27.0001 29.5944 27.569 28.5817 28.5817C27.569 29.5944 27.0001 30.9679 27.0001 32.4001C27.0001 33.8323 27.569 35.2058 28.5817 36.2185C29.5944 37.2312 30.9679 37.8001 32.4001 37.8001C33.8323 37.8001 35.2058 37.2312 36.2185 36.2185C37.2312 35.2058 37.8001 33.8323 37.8001 32.4001ZM35.2249 30.1753C35.2808 30.231 35.3251 30.2972 35.3554 30.3701C35.3856 30.443 35.4012 30.5212 35.4012 30.6001C35.4012 30.679 35.3856 30.7571 35.3554 30.83C35.3251 30.9029 35.2808 30.9691 35.2249 31.0249L31.6249 34.6249C31.5692 34.6808 31.503 34.7251 31.4301 34.7553C31.3572 34.7856 31.279 34.8012 31.2001 34.8012C31.1212 34.8012 31.043 34.7856 30.9701 34.7553C30.8972 34.7251 30.831 34.6808 30.7753 34.6249L29.5753 33.4249C29.4626 33.3122 29.3993 33.1594 29.3993 33.0001C29.3993 32.8408 29.4626 32.6879 29.5753 32.5753C29.688 32.4626 29.8408 32.3993 30.0001 32.3993C30.1594 32.3993 30.3122 32.4626 30.4249 32.5753L31.2001 33.3517L34.3753 30.1753C34.431 30.1194 34.4972 30.0751 34.5701 30.0448C34.643 30.0146 34.7212 29.999 34.8001 29.999C34.879 29.999 34.9572 30.0146 35.0301 30.0448C35.103 30.0751 35.1692 30.1194 35.2249 30.1753Z" fill="rgb(255,255,255)" fill-rule="nonzero" />
	</g>
</svg>
