<svg viewBox="0 0 54 49" xmlns="http://www.w3.org/2000/svg" xmlns:xlink="http://www.w3.org/1999/xlink" width="54.000000" height="49.000000" fill="none" customFrame="url(#clipPath_6)">
	<defs>
		<clipPath id="clipPath_6">
			<rect width="54.000000" height="49.000000" x="0.000000" y="0.000000" rx="8.000000" fill="rgb(255,255,255)" />
		</clipPath>
		<clipPath id="clipPath_7">
			<rect width="24.000000" height="19.000000" x="15.000000" y="15.000000" fill="rgb(255,255,255)" />
		</clipPath>
	</defs>
	<rect id="Frame 2072750771" width="54.000000" height="49.000000" x="0.000000" y="0.000000" rx="8.000000" fill="rgb(255,255,255)" />
	<g id="fa6-solid:users-gear" clip-path="url(#clipPath_7)" customFrame="url(#clipPath_7)">
		<rect id="fa6-solid:users-gear" width="24.000000" height="19.000000" x="15.000000" y="15.000000" fill="rgb(255,255,255)" fill-opacity="0" />
		<path id="Vector" d="M20.4 20.9375C21.1957 20.9375 21.9587 20.6247 22.5213 20.068C23.0839 19.5112 23.4 18.7561 23.4 17.9688C23.4 17.1814 23.0839 16.4263 22.5213 15.8695C21.9587 15.3128 21.1957 15 20.4 15C19.6044 15 18.8413 15.3128 18.2787 15.8695C17.7161 16.4263 17.4 17.1814 17.4 17.9688C17.4 18.7561 17.7161 19.5112 18.2787 20.068C18.8413 20.6247 19.6044 20.9375 20.4 20.9375ZM34.2 20.9375C34.9957 20.9375 35.7587 20.6247 36.3213 20.068C36.8839 19.5112 37.2 18.7561 37.2 17.9688C37.2 17.1814 36.8839 16.4263 36.3213 15.8695C35.7587 15.3128 34.9957 15 34.2 15C33.4044 15 32.6413 15.3128 32.0787 15.8695C31.5161 16.4263 31.2 17.1814 31.2 17.9688C31.2 18.7561 31.5161 19.5112 32.0787 20.068C32.6413 20.6247 33.4044 20.9375 34.2 20.9375ZM15 26.0846C15 26.5187 15.36 26.875 15.7987 26.875L23.8237 26.875C22.8263 26.0029 22.2 24.7301 22.2 23.3125C22.2 23.0305 22.2262 22.7559 22.2712 22.485C21.7612 22.2512 21.195 22.125 20.5988 22.125L18.9975 22.125C16.7925 22.125 15 23.8988 15 26.0846ZM27 26.875C27.9 26.875 28.7213 26.5484 29.3512 26.0104C29.445 25.873 29.5463 25.7395 29.6513 25.6133C29.7525 25.4908 29.865 25.3869 29.9888 25.3053C30.375 24.7338 30.6 24.051 30.6 23.3125C30.6 21.3457 28.9875 19.75 27 19.75C25.0125 19.75 23.4 21.3457 23.4 23.3125C23.4 25.2793 25.0125 26.875 27 26.875ZM29.4525 29.109C29.0662 28.89 28.7738 28.5078 28.6725 28.0625L24.8025 28.0625C22.0387 28.0625 19.8 30.2779 19.8 33.0092C19.8 33.5547 20.2463 34 20.8013 34L32.0737 34C31.995 33.807 31.9538 33.5955 31.9538 33.3914L31.9538 33.2801C31.905 33.2541 31.8525 33.2244 31.8038 33.1947L31.7063 33.2504C31.0763 33.6104 30.1875 33.5473 29.655 32.8904C29.4862 32.6826 29.3325 32.4637 29.19 32.2373L29.1862 32.2299L29.1825 32.2225L29.0925 32.0703L29.0888 32.0629L29.085 32.0555C28.9575 31.8254 28.845 31.5879 28.7475 31.3393C28.44 30.5525 28.83 29.7584 29.46 29.3984L29.5612 29.3428L29.5612 29.1721L29.46 29.1164L29.4525 29.109ZM34.9987 22.125L33.3975 22.125C32.8013 22.125 32.235 22.2549 31.725 22.485C31.7738 22.7521 31.7963 23.0305 31.7963 23.3125C31.7963 23.9582 31.665 24.5705 31.4325 25.1309C31.5263 25.1643 31.6162 25.2051 31.6987 25.2533L31.7963 25.309C31.845 25.2793 31.8938 25.2496 31.9463 25.2236L31.9463 25.1123C31.9463 24.3924 32.445 23.6613 33.2887 23.5314C33.585 23.4869 33.8887 23.4609 34.1963 23.4609C34.5038 23.4609 34.8075 23.4832 35.1038 23.5314C35.9475 23.6613 36.4463 24.3924 36.4463 25.1123L36.4463 25.2236C36.495 25.2496 36.5475 25.2793 36.5963 25.309L36.6937 25.2533C37.3237 24.8934 38.2125 24.9564 38.745 25.6133C38.8313 25.7172 38.9137 25.8285 38.9925 25.9361C38.9137 23.8172 37.155 22.125 34.995 22.125L34.9987 22.125ZM38.4225 28.2072C38.6588 28.0736 38.7788 27.7953 38.6775 27.5393C38.5988 27.3352 38.505 27.1385 38.4 26.9492L38.3138 26.8008C38.1975 26.6115 38.07 26.4334 37.9313 26.2627C37.7588 26.0512 37.455 26.0141 37.2188 26.1514L37.11 26.2145C36.765 26.4111 36.345 26.3629 36 26.1662C35.655 25.9695 35.3963 25.6281 35.3963 25.2348L35.3963 25.1086C35.3963 24.8377 35.2125 24.5965 34.9425 24.5557C34.6988 24.5186 34.4512 24.5 34.1963 24.5C33.9413 24.5 33.6937 24.5186 33.45 24.5557C33.18 24.5965 32.9963 24.8377 32.9963 25.1086L32.9963 25.2348C32.9963 25.6281 32.7375 25.9695 32.3925 26.1662C32.0475 26.3629 31.6275 26.4111 31.2825 26.2145L31.1737 26.1514C30.9375 26.0178 30.6338 26.0549 30.4613 26.2627C30.3225 26.4334 30.195 26.6152 30.0788 26.8045L29.9925 26.9492C29.8875 27.1385 29.7938 27.3352 29.715 27.5393C29.6175 27.7916 29.7338 28.0699 29.97 28.2035L30.0788 28.2666C30.4238 28.4633 30.5925 28.8529 30.5925 29.2463C30.5925 29.6396 30.4238 30.0293 30.0788 30.226L29.9663 30.2891C29.73 30.4227 29.61 30.701 29.7113 30.9533C29.79 31.1574 29.8838 31.3504 29.9888 31.5396L30.0788 31.6918C30.1912 31.8811 30.3188 32.0592 30.4575 32.2299C30.63 32.4414 30.9338 32.4785 31.17 32.3412L31.2788 32.2781C31.6238 32.0814 32.0438 32.1297 32.3888 32.3264C32.7337 32.523 32.9925 32.8645 32.9925 33.2578L32.9925 33.384C32.9925 33.6549 33.1763 33.8961 33.4463 33.9369C33.69 33.974 33.9375 33.9926 34.1925 33.9926C34.4475 33.9926 34.695 33.974 34.9388 33.9369C35.2088 33.8961 35.3925 33.6549 35.3925 33.384L35.3925 33.2578C35.3925 32.8645 35.6513 32.523 35.9963 32.3264C36.3413 32.1297 36.7613 32.0814 37.1063 32.2781L37.215 32.3412C37.4513 32.4748 37.755 32.4377 37.9275 32.2299C38.0663 32.0592 38.1938 31.8811 38.3063 31.6918L38.3963 31.5359C38.5013 31.3467 38.595 31.1537 38.6738 30.9496C38.7712 30.6973 38.655 30.4189 38.4188 30.2854L38.3063 30.2223C37.9613 30.0256 37.7925 29.6359 37.7925 29.2426C37.7925 28.8492 37.9613 28.4596 38.3063 28.2629L38.4188 28.1998L38.4225 28.2072ZM32.7 29.25C32.7 28.8563 32.858 28.4788 33.1393 28.2004C33.4206 27.922 33.8022 27.7656 34.2 27.7656C34.5978 27.7656 34.9794 27.922 35.2607 28.2004C35.542 28.4788 35.7 28.8563 35.7 29.25C35.7 29.6437 35.542 30.0212 35.2607 30.2996C34.9794 30.578 34.5978 30.7344 34.2 30.7344C33.8022 30.7344 33.4206 30.578 33.1393 30.2996C32.858 30.0212 32.7 29.6437 32.7 29.25Z" fill="rgb(2,65,111)" fill-rule="nonzero" />
	</g>
</svg>
