<svg viewBox="0 0 12 12" xmlns="http://www.w3.org/2000/svg" xmlns:xlink="http://www.w3.org/1999/xlink" width="12.000000" height="12.000000" fill="none" customFrame="#000000">
	<path id="Vector" d="M3.55271e-16 6C1.77636e-16 4.4087 0.632141 2.88258 1.75736 1.75736C2.88258 0.632141 4.4087 1.33227e-15 6 0C7.5913 7.54952e-16 9.11742 0.632141 10.2426 1.75736C11.3679 2.88258 12 4.4087 12 6C12 7.5913 11.3679 9.11742 10.2426 10.2426C9.11742 11.3679 7.5913 12 6 12C4.4087 12 2.88258 11.3679 1.75736 10.2426C0.632141 9.11742 1.15463e-15 7.5913 3.55271e-16 6ZM5.6576 8.568L9.112 4.2496L8.488 3.7504L5.5424 7.4312L3.456 5.6928L2.944 6.3072L5.6576 8.568Z" fill="rgb(95,251,64)" fill-rule="evenodd" />
</svg>
