<svg width="18" height="18" viewBox="0 0 18 18" fill="none" xmlns="http://www.w3.org/2000/svg">
<path d="M3.74989 8.33333C4.43817 8.33332 5.11317 8.52273 5.70096 8.88082C6.28875 9.2389 6.76666 9.75185 7.08232 10.3635C7.39799 10.9751 7.53923 11.6618 7.49059 12.3483C7.44195 13.0349 7.2053 13.6948 6.80656 14.2558L8.98323 16.4333C9.04463 16.4906 9.09388 16.5596 9.12804 16.6362C9.1622 16.7129 9.18057 16.7956 9.18205 16.8796C9.18353 16.9635 9.1681 17.0468 9.13666 17.1247C9.10523 17.2025 9.05844 17.2732 8.99909 17.3325C8.93974 17.3919 8.86905 17.4387 8.79122 17.4701C8.7134 17.5015 8.63004 17.517 8.54612 17.5155C8.46221 17.514 8.37944 17.4956 8.30278 17.4615C8.22611 17.4273 8.15711 17.3781 8.09989 17.3167L5.92239 15.14C5.44137 15.4819 4.88646 15.7054 4.30277 15.7924C3.71909 15.8794 3.12312 15.8274 2.56331 15.6406C2.00351 15.4539 1.49568 15.1376 1.08113 14.7176C0.666571 14.2977 0.356988 13.7857 0.177553 13.2236C-0.00188258 12.6614 -0.046104 12.0648 0.0484841 11.4823C0.143072 10.8998 0.373799 10.3478 0.721904 9.87129C1.07001 9.39476 1.52566 9.00712 2.05182 8.73988C2.57797 8.47264 3.15976 8.33335 3.74989 8.33333ZM17.4999 13.125C17.4999 13.4807 17.4298 13.8328 17.2937 14.1614C17.1576 14.49 16.9581 14.7886 16.7066 15.0401C16.4552 15.2916 16.1566 15.4911 15.828 15.6272C15.4994 15.7633 15.1472 15.8333 14.7916 15.8333H9.56239L7.85406 14.125C8.36475 13.0971 8.47121 11.9151 8.15239 10.8125C8.21128 10.8264 8.27156 10.8333 8.33323 10.8333H9.99989C10.2209 10.8333 10.4329 10.7455 10.5891 10.5893C10.7454 10.433 10.8332 10.221 10.8332 10H14.7916C15.8399 10 16.7916 9.59167 17.4999 8.925V13.125ZM3.74989 9.58333C3.08685 9.58333 2.45097 9.84672 1.98213 10.3156C1.51328 10.7844 1.24989 11.4203 1.24989 12.0833C1.24989 12.7464 1.51328 13.3823 1.98213 13.8511C2.45097 14.3199 3.08685 14.5833 3.74989 14.5833C4.41293 14.5833 5.04882 14.3199 5.51766 13.8511C5.9865 13.3823 6.24989 12.7464 6.24989 12.0833C6.24989 11.4203 5.9865 10.7844 5.51766 10.3156C5.04882 9.84672 4.41293 9.58333 3.74989 9.58333ZM10.6249 0C11.1222 0 11.5991 0.197544 11.9507 0.549175C12.3023 0.900805 12.4999 1.37772 12.4999 1.875V3.33333H14.7916C14.8382 3.33333 14.8846 3.33444 14.9307 3.33667C15.637 3.37171 16.3015 3.68157 16.7823 4.20002C17.2631 4.71848 17.5221 5.40441 17.5039 6.11127C17.4858 6.81813 17.1919 7.48986 16.685 7.98292C16.1782 8.47599 15.4987 8.75129 14.7916 8.75H10.8332V8.33333C10.8332 8.11232 10.7454 7.90036 10.5891 7.74408C10.4329 7.5878 10.2209 7.5 9.99989 7.5H8.33323C8.11221 7.5 7.90025 7.5878 7.74397 7.74408C7.58769 7.90036 7.49989 8.11232 7.49989 8.33333V8.75H6.89323C6.04409 7.94632 4.91905 7.49893 3.74989 7.5C3.00156 7.5 2.29573 7.68 1.67239 7.99833C1.39016 7.72995 1.16932 7.40368 1.02505 7.04191C0.880775 6.68015 0.816474 6.29145 0.836559 5.9025C0.872233 5.20917 1.17279 4.55602 1.67617 4.07791C2.17956 3.59981 2.84731 3.33327 3.54156 3.33333H5.83323V1.875C5.83323 1.37772 6.03077 0.900805 6.3824 0.549175C6.73403 0.197544 7.21095 0 7.70823 0H10.6249ZM7.70823 1.25C7.54247 1.25 7.3835 1.31585 7.26628 1.43306C7.14907 1.55027 7.08323 1.70924 7.08323 1.875V3.33333H11.2499V1.875C11.2499 1.70924 11.184 1.55027 11.0668 1.43306C10.9496 1.31585 10.7907 1.25 10.6249 1.25H7.70823Z" fill="#222222"/>
</svg>
